<svg xmlns="http://www.w3.org/2000/svg" xmlns:xlink="http://www.w3.org/1999/xlink" version="1.1" width="1000" height="1000" viewBox="0 0 1000 1000" xml:space="preserve">
<desc>Created with Fabric.js 3.5.0</desc>
<defs>
</defs>
<rect x="0" y="0" width="100%" height="100%" fill="#ffffff"/>
<g transform="matrix(-7.1023 0 0 -7.1023 499.9983 499.9983)" id="291601">
<g style="" vector-effect="non-scaling-stroke">
		<g transform="matrix(1 0 0 1 0 0)" id="transparent">
<path style="stroke: none; stroke-width: 1; stroke-dasharray: none; stroke-linecap: butt; stroke-dashoffset: 0; stroke-linejoin: miter; stroke-miterlimit: 4; is-custom-font: none; font-file-url: none; fill: rgb(10,10,10); fill-rule: nonzero; opacity: 1; visibility: hidden;" transform=" translate(-64, -64)" d="M 64 0.3 C 28.7 0.3 0 28.8 0 64 c 0 35.2 28.7 63.7 64 63.7 c 35.3 0 64 -28.5 64 -63.7 C 128 28.8 99.3 0.3 64 0.3 z M 64 121.3 C 32.2 121.3 6.4 95.7 6.4 64 C 6.4 32.3 32.2 6.7 64 6.7 c 12.1 0 23.4 3.7 32.7 10.1 c 13.7 9.4 23.1 24.5 24.7 41.8 c 0 0.5 0.1 9.8 0 10.7 C 118.7 98.5 94 121.3 64 121.3 z M 60.8 32.2 c -14.5 0 -19.1 13.3 -19.2 25.5 h 9.6 c -0.2 -8.8 0.7 -15.9 9.6 -15.9 c 6.4 0 9.6 2.7 9.6 9.6 c 0 4.4 -3.4 6.6 -6.4 9.6 c -6.2 6 -5.7 10.4 -6 18.7 h 8.4 c 0.3 -7.5 0.2 -7.3 6.4 -13.9 c 4.2 -4.1 7.1 -8.2 7.1 -14.5 C 80 41.2 74.6 32.2 60.8 32.2 z M 64.1 86.3 c -3.6 0 -6.4 2.9 -6.4 6.4 c 0 3.5 2.9 6.4 6.4 6.4 c 3.6 0 6.4 -2.9 6.4 -6.4 C 70.5 89.1 67.6 86.3 64.1 86.3 z" stroke-linecap="round"/>
</g>
		<g transform="matrix(1 0 0 1 0 0)" id="down_1_">
<path style="stroke: none; stroke-width: 1; stroke-dasharray: none; stroke-linecap: butt; stroke-dashoffset: 0; stroke-linejoin: miter; stroke-miterlimit: 4; is-custom-font: none; font-file-url: none; fill: rgb(10,10,10); fill-rule: nonzero; opacity: 1; visibility: hidden;" transform=" translate(-64, -64)" d="M 64 0.3 C 28.7 0.3 0 28.8 0 64 s 28.7 63.7 64 63.7 c 35.3 0 64 -28.5 64 -63.7 S 99.3 0.3 64 0.3 z M 64 121.3 C 32.2 121.3 6.4 95.7 6.4 64 C 6.4 32.3 32.2 6.7 64 6.7 c 31.8 0 57.6 25.7 57.6 57.3 C 121.6 95.7 95.8 121.3 64 121.3 z M 85.7 58.1 L 70.4 70.3 V 41.7 c 0 -2.2 -2.3 -3.2 -4.4 -3.2 H 62 c -2.2 0 -3.9 1.8 -3.9 3.9 v 28.4 L 42.3 58.1 c -2.2 0 -3.9 1.8 -3.9 3.9 v 7.1 L 64 95.8 l 25.6 -26.7 V 62 C 89.6 59.8 87.8 58.1 85.7 58.1 z" stroke-linecap="round"/>
</g>
		<g transform="matrix(1 0 0 1 0 0)" id="up">
<path style="stroke: none; stroke-width: 1; stroke-dasharray: none; stroke-linecap: butt; stroke-dashoffset: 0; stroke-linejoin: miter; stroke-miterlimit: 4; is-custom-font: none; font-file-url: none; fill: rgb(10,10,10); fill-rule: nonzero; opacity: 1; visibility: hidden;" transform=" translate(-64, -64)" d="M 64 0.3 C 28.7 0.3 0 28.8 0 64 s 28.7 63.7 64 63.7 c 35.3 0 64 -28.5 64 -63.7 S 99.3 0.3 64 0.3 z M 64 121.3 C 32.2 121.3 6.4 95.7 6.4 64 C 6.4 32.3 32.2 6.7 64 6.7 c 31.8 0 57.6 25.7 57.6 57.3 C 121.6 95.7 95.8 121.3 64 121.3 z M 38.4 58.9 V 66 c 0 2.2 1.8 3.9 3.9 3.9 l 15.3 -12.2 v 28.7 c 0 2.2 2.3 3.2 4.4 3.2 H 66 c 2.2 0 3.9 -1.8 3.9 -3.9 V 57.2 l 15.8 12.7 c 2.2 0 3.9 -1.8 3.9 -3.9 v -7.1 L 64 32.2 L 38.4 58.9 z" stroke-linecap="round"/>
</g>
		<g transform="matrix(1 0 0 1 0 0)" id="right_1_">
<path style="stroke: none; stroke-width: 1; stroke-dasharray: none; stroke-linecap: butt; stroke-dashoffset: 0; stroke-linejoin: miter; stroke-miterlimit: 4; is-custom-font: none; font-file-url: none; fill: rgb(10,10,10); fill-rule: nonzero; opacity: 1; visibility: hidden;" transform=" translate(-64, -64)" d="M 64 0.3 C 28.8 0.3 0.3 28.8 0.3 64 c 0 35.2 28.5 63.7 63.7 63.7 c 35.2 0 63.7 -28.5 63.7 -63.7 C 127.7 28.8 99.2 0.3 64 0.3 z M 64 121.3 C 32.3 121.3 6.7 95.7 6.7 64 C 6.7 32.3 32.3 6.7 64 6.7 c 31.7 0 57.3 25.7 57.3 57.3 C 121.3 95.7 95.7 121.3 64 121.3 z M 62 38.5 c -2.2 0 -3.9 1.8 -3.9 3.9 l 12.2 15.2 H 41.7 c -2.2 0 -3.2 2.2 -3.2 4.4 V 66 c 0 2.2 1.8 3.9 3.9 3.9 h 28.4 L 58.1 85.6 c 0 2.2 1.8 3.9 3.9 3.9 h 7.1 L 95.8 64 L 69.1 38.5 H 62 z" stroke-linecap="round"/>
</g>
		<g transform="matrix(1 0 0 1 0 0)" id="left_1_">
<path style="stroke: none; stroke-width: 1; stroke-dasharray: none; stroke-linecap: butt; stroke-dashoffset: 0; stroke-linejoin: miter; stroke-miterlimit: 4; is-custom-font: none; font-file-url: none; fill: rgb(10,10,10); fill-rule: nonzero; opacity: 1; visibility: hidden;" transform=" translate(-64, -64)" d="M 64 0.3 C 28.7 0.3 0 28.8 0 64 c 0 35.2 28.7 63.7 64 63.7 c 35.3 0 64 -28.5 64 -63.7 C 128 28.8 99.3 0.3 64 0.3 z M 64 121.3 C 32.2 121.3 6.4 95.7 6.4 64 C 6.4 32.3 32.2 6.7 64 6.7 c 31.8 0 57.6 25.7 57.6 57.3 C 121.6 95.7 95.8 121.3 64 121.3 z M 86.4 57.6 H 57.6 l 12.3 -15.2 c 0 -2.2 -1.8 -3.9 -3.9 -3.9 h -7.1 L 32 64 l 26.8 25.5 H 66 c 2.2 0 3.9 -1.8 3.9 -3.9 L 57.1 69.9 h 28.6 c 2.2 0 3.9 -1.8 3.9 -3.9 V 62 C 89.6 59.9 88.6 57.6 86.4 57.6 z" stroke-linecap="round"/>
</g>
		<g transform="matrix(1 0 0 1 0 0)" id="left_3_">
<path style="stroke: none; stroke-width: 1; stroke-dasharray: none; stroke-linecap: butt; stroke-dashoffset: 0; stroke-linejoin: miter; stroke-miterlimit: 4; is-custom-font: none; font-file-url: none; fill: rgb(10,10,10); fill-rule: nonzero; opacity: 1; visibility: hidden;" transform=" translate(-64, -64)" d="M 64 0.3 C 28.7 0.3 0 28.8 0 64 c 0 35.2 28.7 63.7 64 63.7 c 35.3 0 64 -28.5 64 -63.7 C 128 28.8 99.3 0.3 64 0.3 z M 64 121.3 C 32.2 121.3 6.4 95.7 6.4 64 C 6.4 32.3 32.2 6.7 64 6.7 c 31.8 0 57.6 25.7 57.6 57.3 C 121.6 95.7 95.8 121.3 64 121.3 z M 65.3 38.5 L 41.6 64 l 23.6 25.5 h 13.5 L 54.4 64 l 24.4 -25.5 H 65.3 z" stroke-linecap="round"/>
</g>
		<g transform="matrix(1 0 0 1 0 0)" id="plus_transparent">
<path style="stroke: none; stroke-width: 1; stroke-dasharray: none; stroke-linecap: butt; stroke-dashoffset: 0; stroke-linejoin: miter; stroke-miterlimit: 4; is-custom-font: none; font-file-url: none; fill: rgb(10,10,10); fill-rule: nonzero; opacity: 1; visibility: hidden;" transform=" translate(-64, -64)" d="M 64 0.3 C 28.7 0.3 0 28.8 0 64 c 0 35.2 28.7 63.7 64 63.7 c 35.3 0 64 -28.5 64 -63.7 C 128 28.8 99.3 0.3 64 0.3 z M 64 121.3 C 32.2 121.3 6.4 95.7 6.4 64 C 6.4 32.3 32.2 6.7 64 6.7 c 31.8 0 57.6 25.7 57.6 57.3 C 121.6 95.7 95.8 121.3 64 121.3 z M 84.8 60.8 H 70.4 V 46.5 c 0 -2.6 -2.2 -4.8 -4.8 -4.8 c -2.7 0 -4.8 2.1 -4.8 4.8 v 14.3 H 46.4 c -2.7 0 -4.8 2.1 -4.8 4.8 c 0 2.6 2.1 4.8 4.8 4.8 h 14.4 v 14.3 c 0 2.6 2.1 4.8 4.8 4.8 c 2.6 0 4.8 -2.1 4.8 -4.8 V 70.4 h 14.4 c 2.6 0 4.8 -2.1 4.8 -4.8 C 89.6 63 87.5 60.8 84.8 60.8 z" stroke-linecap="round"/>
</g>
		<g transform="matrix(1 0 0 1 0 0)" id="error_transparent_copy">
<path style="stroke: none; stroke-width: 1; stroke-dasharray: none; stroke-linecap: butt; stroke-dashoffset: 0; stroke-linejoin: miter; stroke-miterlimit: 4; is-custom-font: none; font-file-url: none; fill: rgb(10,10,10); fill-rule: nonzero; opacity: 1; visibility: hidden;" transform=" translate(-64, -64)" d="M 64 0.3 C 28.7 0.3 0 28.8 0 64 c 0 35.2 28.7 63.7 64 63.7 c 35.3 0 64 -28.5 64 -63.7 C 128 28.8 99.3 0.3 64 0.3 z M 64 121.3 C 32.2 121.3 6.4 95.7 6.4 64 C 6.4 32.3 32.2 6.7 64 6.7 c 31.8 0 57.6 25.7 57.6 57.3 C 121.6 95.7 95.8 121.3 64 121.3 z M 87.2 44.5 c -0.9 -0.9 -2.3 -0.9 -3.2 0 L 55.2 73.2 L 41.4 59.5 c -0.9 -0.9 -2.3 -0.9 -3.2 0 l -4.8 4.8 c -0.9 0.9 -0.9 2.3 0 3.2 l 15.3 15.3 c 0 0 0 0 0 0 l 3.3 3.3 l 0.8 0.8 l 0 0 l 0.7 0.7 c 0.9 0.9 2.3 0.9 3.2 0 L 92 52.5 c 0.9 -0.9 0.9 -2.3 0 -3.2 L 87.2 44.5 z" stroke-linecap="round"/>
</g>
		<g transform="matrix(1 0 0 1 0 0)" id="error_transparent">
<path style="stroke: none; stroke-width: 1; stroke-dasharray: none; stroke-linecap: butt; stroke-dashoffset: 0; stroke-linejoin: miter; stroke-miterlimit: 4; is-custom-font: none; font-file-url: none; fill: rgb(10,10,10); fill-rule: nonzero; opacity: 1; visibility: hidden;" transform=" translate(-64, -64)" d="M 64 0.3 C 28.7 0.3 0 28.8 0 64 c 0 35.2 28.7 63.7 64 63.7 c 35.3 0 64 -28.5 64 -63.7 C 128 28.8 99.3 0.3 64 0.3 z M 64 121.3 C 32.2 121.3 6.4 95.7 6.4 64 C 6.4 32.3 32.2 6.7 64 6.7 c 31.8 0 57.6 25.7 57.6 57.3 C 121.6 95.7 95.8 121.3 64 121.3 z M 85.9 48.1 L 81 43.3 c -0.9 -0.9 -2.3 -0.9 -3.2 0 L 64 57 L 50.2 43.3 c -0.9 -0.9 -2.3 -0.9 -3.2 0 l -4.9 4.8 c -0.9 0.9 -0.9 2.3 0 3.2 L 55.9 65 L 42.1 78.8 c -0.9 0.9 -0.9 2.3 0 3.2 l 4.9 4.8 c 0.9 0.9 2.3 0.9 3.2 0 L 64 73.1 l 13.8 13.7 c 0.9 0.9 2.3 0.9 3.2 0 l 4.9 -4.8 c 0.9 -0.9 0.9 -2.3 0 -3.2 L 72.1 65 l 13.8 -13.7 C 86.8 50.4 86.8 49 85.9 48.1 z" stroke-linecap="round"/>
</g>
		<g transform="matrix(1 0 0 1 0 0)" id="alert_transparent">
<path style="stroke: none; stroke-width: 1; stroke-dasharray: none; stroke-linecap: butt; stroke-dashoffset: 0; stroke-linejoin: miter; stroke-miterlimit: 4; is-custom-font: none; font-file-url: none; fill: rgb(10,10,10); fill-rule: nonzero; opacity: 1; visibility: hidden;" transform=" translate(-64, -64)" d="M 64 32.2 c -4.4 0 -8 3.3 -8 7.3 v 24.8 c 0 4.1 3.6 7.3 8 7.3 s 8 -3.3 8 -7.3 V 39.5 C 72 35.4 68.4 32.2 64 32.2 z M 64 0.3 C 28.7 0.3 0 28.8 0 64 c 0 35.2 28.7 63.7 64 63.7 c 35.3 0 64 -28.5 64 -63.7 C 128 28.8 99.3 0.3 64 0.3 z M 64 121.3 C 32.2 121.3 6.4 95.7 6.4 64 C 6.4 32.3 32.2 6.7 64 6.7 c 31.8 0 57.6 25.7 57.6 57.3 C 121.6 95.7 95.8 121.3 64 121.3 z M 64 81.2 c -4.4 0 -8 3.3 -8 7.3 s 3.6 7.3 8 7.3 s 8 -3.3 8 -7.3 S 68.4 81.2 64 81.2 z" stroke-linecap="round"/>
</g>
		<g transform="matrix(1 0 0 1 0 0)" id="minus_transparent">
<path style="stroke: none; stroke-width: 1; stroke-dasharray: none; stroke-linecap: butt; stroke-dashoffset: 0; stroke-linejoin: miter; stroke-miterlimit: 4; is-custom-font: none; font-file-url: none; fill: rgb(10,10,10); fill-rule: nonzero; opacity: 1; visibility: hidden;" transform=" translate(-64, -64)" d="M 64 0.3 C 28.7 0.3 0 28.8 0 64 c 0 35.2 28.7 63.7 64 63.7 c 35.3 0 64 -28.5 64 -63.7 C 128 28.8 99.3 0.3 64 0.3 z M 64 121.3 C 32.2 121.3 6.4 95.7 6.4 64 C 6.4 32.3 32.2 6.7 64 6.7 c 31.8 0 57.6 25.7 57.6 57.3 C 121.6 95.7 95.8 121.3 64 121.3 z M 81.6 60.8 H 43.2 c -2.7 0 -4.8 2.1 -4.8 4.8 c 0 2.6 2.2 4.8 4.8 4.8 h 38.4 c 2.6 0 4.8 -2.1 4.8 -4.8 C 86.4 63 84.3 60.8 81.6 60.8 z" stroke-linecap="round"/>
</g>
		<g transform="matrix(1 0 0 1 0 0)" id="_x32__2_">
<path style="stroke: none; stroke-width: 1; stroke-dasharray: none; stroke-linecap: butt; stroke-dashoffset: 0; stroke-linejoin: miter; stroke-miterlimit: 4; is-custom-font: none; font-file-url: none; fill: rgb(10,10,10); fill-rule: nonzero; opacity: 1;" transform=" translate(-64, -64)" d="M 64 0 C 28.7 0 0 28.7 0 64 s 28.7 64 64 64 c 35.3 0 64 -28.7 64 -64 S 99.3 0 64 0 z M 64 121.6 C 32.2 121.6 6.4 95.8 6.4 64 S 32.2 6.4 64 6.4 c 31.8 0 57.6 25.8 57.6 57.6 S 95.8 121.6 64 121.6 z M 49.2 38.4 L 73.6 64 L 49.2 89.6 h 13.5 L 86.4 64 L 62.7 38.4 H 49.2 z" stroke-linecap="round"/>
</g>
</g>
</g>
</svg>